<mxfile host="app.diagrams.net" modified="2022-02-07T12:34:05.031Z" agent="5.0 (X11)" etag="5OWuLRZkpNm7EpCFFkxG" version="16.5.3" type="github">
  <diagram id="C5RBs43oDa-KdzZeNtuy" name="Page-1">
    <mxGraphModel dx="976" dy="1724" grid="1" gridSize="10" guides="1" tooltips="1" connect="1" arrows="1" fold="1" page="1" pageScale="1" pageWidth="827" pageHeight="1169" math="0" shadow="0">
      <root>
        <mxCell id="WIyWlLk6GJQsqaUBKTNV-0" />
        <mxCell id="WIyWlLk6GJQsqaUBKTNV-1" parent="WIyWlLk6GJQsqaUBKTNV-0" />
        <mxCell id="lCIamtsk54EWMhv8Yxbf-2" value="&lt;font style=&quot;font-size: 14px&quot;&gt;V&lt;font style=&quot;font-size: 14px&quot;&gt;o&lt;font style=&quot;font-size: 14px&quot;&gt;lunteer/NGO&lt;/font&gt;&lt;/font&gt;&lt;/font&gt;" style="rounded=1;whiteSpace=wrap;html=1;fontStyle=0" parent="WIyWlLk6GJQsqaUBKTNV-1" vertex="1">
          <mxGeometry x="557" y="-1048" width="123" height="58" as="geometry" />
        </mxCell>
        <mxCell id="lCIamtsk54EWMhv8Yxbf-4" value="User" style="rounded=1;whiteSpace=wrap;html=1;fontFamily=Georgia;fontSize=26;fontStyle=3" parent="WIyWlLk6GJQsqaUBKTNV-1" vertex="1">
          <mxGeometry x="360" y="-1160" width="120" height="60" as="geometry" />
        </mxCell>
        <mxCell id="lCIamtsk54EWMhv8Yxbf-5" value="" style="endArrow=classic;html=1;rounded=0;fontFamily=Georgia;fontSize=26;entryX=0.592;entryY=-0.017;entryDx=0;entryDy=0;entryPerimeter=0;exitX=1;exitY=0.5;exitDx=0;exitDy=0;" parent="WIyWlLk6GJQsqaUBKTNV-1" source="lCIamtsk54EWMhv8Yxbf-4" target="lCIamtsk54EWMhv8Yxbf-2" edge="1">
          <mxGeometry width="50" height="50" relative="1" as="geometry">
            <mxPoint x="480" y="-1120" as="sourcePoint" />
            <mxPoint x="470" y="-990" as="targetPoint" />
            <Array as="points">
              <mxPoint x="630" y="-1130" />
            </Array>
          </mxGeometry>
        </mxCell>
        <mxCell id="lCIamtsk54EWMhv8Yxbf-6" value="" style="endArrow=classic;html=1;rounded=0;fontFamily=Georgia;fontSize=26;exitX=0;exitY=0.5;exitDx=0;exitDy=0;entryX=0.5;entryY=0;entryDx=0;entryDy=0;" parent="WIyWlLk6GJQsqaUBKTNV-1" source="lCIamtsk54EWMhv8Yxbf-4" target="lCIamtsk54EWMhv8Yxbf-7" edge="1">
          <mxGeometry width="50" height="50" relative="1" as="geometry">
            <mxPoint x="420" y="-940" as="sourcePoint" />
            <mxPoint x="99.95000000000005" y="-1050" as="targetPoint" />
            <Array as="points">
              <mxPoint x="223" y="-1130" />
            </Array>
          </mxGeometry>
        </mxCell>
        <mxCell id="lCIamtsk54EWMhv8Yxbf-7" value="Restaurant/Food provider" style="rounded=1;whiteSpace=wrap;html=1;fontFamily=Garamond;fontSize=14;" parent="WIyWlLk6GJQsqaUBKTNV-1" vertex="1">
          <mxGeometry x="163" y="-1050" width="120" height="60" as="geometry" />
        </mxCell>
        <mxCell id="lCIamtsk54EWMhv8Yxbf-8" value="signedup user" style="rounded=1;whiteSpace=wrap;html=1;fontFamily=Garamond;fontSize=14;" parent="WIyWlLk6GJQsqaUBKTNV-1" vertex="1">
          <mxGeometry x="253" y="-940" width="90" height="40" as="geometry" />
        </mxCell>
        <mxCell id="lCIamtsk54EWMhv8Yxbf-9" value="first time user" style="rounded=1;whiteSpace=wrap;html=1;fontFamily=Garamond;fontSize=14;" parent="WIyWlLk6GJQsqaUBKTNV-1" vertex="1">
          <mxGeometry x="103" y="-940" width="90" height="40" as="geometry" />
        </mxCell>
        <mxCell id="lCIamtsk54EWMhv8Yxbf-10" value="Sign In" style="rhombus;whiteSpace=wrap;html=1;fontFamily=Garamond;fontSize=14;" parent="WIyWlLk6GJQsqaUBKTNV-1" vertex="1">
          <mxGeometry x="258" y="-870" width="80" height="80" as="geometry" />
        </mxCell>
        <mxCell id="lCIamtsk54EWMhv8Yxbf-11" value="Sign Up" style="rhombus;whiteSpace=wrap;html=1;fontFamily=Garamond;fontSize=14;" parent="WIyWlLk6GJQsqaUBKTNV-1" vertex="1">
          <mxGeometry x="103" y="-870" width="80" height="80" as="geometry" />
        </mxCell>
        <mxCell id="lCIamtsk54EWMhv8Yxbf-12" value="Sign In" style="rhombus;whiteSpace=wrap;html=1;fontFamily=Garamond;fontSize=14;" parent="WIyWlLk6GJQsqaUBKTNV-1" vertex="1">
          <mxGeometry x="487" y="-870" width="80" height="80" as="geometry" />
        </mxCell>
        <mxCell id="lCIamtsk54EWMhv8Yxbf-13" value="Sign Up" style="rhombus;whiteSpace=wrap;html=1;fontFamily=Garamond;fontSize=14;" parent="WIyWlLk6GJQsqaUBKTNV-1" vertex="1">
          <mxGeometry x="654" y="-870" width="80" height="80" as="geometry" />
        </mxCell>
        <mxCell id="lCIamtsk54EWMhv8Yxbf-14" value="Signed Up user" style="rounded=1;whiteSpace=wrap;html=1;fontFamily=Garamond;fontSize=14;" parent="WIyWlLk6GJQsqaUBKTNV-1" vertex="1">
          <mxGeometry x="477" y="-940" width="100" height="40" as="geometry" />
        </mxCell>
        <mxCell id="lCIamtsk54EWMhv8Yxbf-15" value="First Time User" style="rounded=1;whiteSpace=wrap;html=1;fontFamily=Garamond;fontSize=14;" parent="WIyWlLk6GJQsqaUBKTNV-1" vertex="1">
          <mxGeometry x="634" y="-940" width="100" height="40" as="geometry" />
        </mxCell>
        <mxCell id="lCIamtsk54EWMhv8Yxbf-16" value="" style="endArrow=classic;html=1;rounded=0;fontFamily=Garamond;fontSize=14;" parent="WIyWlLk6GJQsqaUBKTNV-1" edge="1">
          <mxGeometry width="50" height="50" relative="1" as="geometry">
            <mxPoint x="213" y="-990" as="sourcePoint" />
            <mxPoint x="142" y="-940" as="targetPoint" />
          </mxGeometry>
        </mxCell>
        <mxCell id="lCIamtsk54EWMhv8Yxbf-17" value="" style="endArrow=classic;html=1;rounded=0;fontFamily=Garamond;fontSize=14;entryX=0.5;entryY=0;entryDx=0;entryDy=0;" parent="WIyWlLk6GJQsqaUBKTNV-1" target="lCIamtsk54EWMhv8Yxbf-8" edge="1">
          <mxGeometry width="50" height="50" relative="1" as="geometry">
            <mxPoint x="217" y="-990" as="sourcePoint" />
            <mxPoint x="573" y="-990" as="targetPoint" />
          </mxGeometry>
        </mxCell>
        <mxCell id="lCIamtsk54EWMhv8Yxbf-22" value="" style="endArrow=classic;html=1;rounded=0;fontFamily=Garamond;fontSize=14;exitX=0.575;exitY=0.983;exitDx=0;exitDy=0;exitPerimeter=0;entryX=0.5;entryY=0;entryDx=0;entryDy=0;" parent="WIyWlLk6GJQsqaUBKTNV-1" source="lCIamtsk54EWMhv8Yxbf-2" target="lCIamtsk54EWMhv8Yxbf-14" edge="1">
          <mxGeometry width="50" height="50" relative="1" as="geometry">
            <mxPoint x="327" y="-928" as="sourcePoint" />
            <mxPoint x="377" y="-978" as="targetPoint" />
          </mxGeometry>
        </mxCell>
        <mxCell id="lCIamtsk54EWMhv8Yxbf-23" value="" style="endArrow=classic;html=1;rounded=0;fontFamily=Garamond;fontSize=14;entryX=0.5;entryY=0;entryDx=0;entryDy=0;" parent="WIyWlLk6GJQsqaUBKTNV-1" target="lCIamtsk54EWMhv8Yxbf-15" edge="1">
          <mxGeometry width="50" height="50" relative="1" as="geometry">
            <mxPoint x="627" y="-988" as="sourcePoint" />
            <mxPoint x="377" y="-978" as="targetPoint" />
          </mxGeometry>
        </mxCell>
        <mxCell id="lCIamtsk54EWMhv8Yxbf-24" value="" style="endArrow=classic;html=1;rounded=0;fontFamily=Garamond;fontSize=14;" parent="WIyWlLk6GJQsqaUBKTNV-1" edge="1">
          <mxGeometry width="50" height="50" relative="1" as="geometry">
            <mxPoint x="143" y="-900" as="sourcePoint" />
            <mxPoint x="143" y="-870" as="targetPoint" />
          </mxGeometry>
        </mxCell>
        <mxCell id="lCIamtsk54EWMhv8Yxbf-26" value="" style="endArrow=classic;html=1;rounded=0;fontFamily=Garamond;fontSize=14;exitX=0.5;exitY=1;exitDx=0;exitDy=0;entryX=0.5;entryY=0;entryDx=0;entryDy=0;" parent="WIyWlLk6GJQsqaUBKTNV-1" source="lCIamtsk54EWMhv8Yxbf-8" target="lCIamtsk54EWMhv8Yxbf-10" edge="1">
          <mxGeometry width="50" height="50" relative="1" as="geometry">
            <mxPoint x="523" y="-940" as="sourcePoint" />
            <mxPoint x="573" y="-990" as="targetPoint" />
          </mxGeometry>
        </mxCell>
        <mxCell id="lCIamtsk54EWMhv8Yxbf-27" value="" style="endArrow=classic;html=1;rounded=0;fontFamily=Garamond;fontSize=14;exitX=0.5;exitY=1;exitDx=0;exitDy=0;" parent="WIyWlLk6GJQsqaUBKTNV-1" source="lCIamtsk54EWMhv8Yxbf-14" target="lCIamtsk54EWMhv8Yxbf-12" edge="1">
          <mxGeometry width="50" height="50" relative="1" as="geometry">
            <mxPoint x="327" y="-940" as="sourcePoint" />
            <mxPoint x="377" y="-990" as="targetPoint" />
          </mxGeometry>
        </mxCell>
        <mxCell id="lCIamtsk54EWMhv8Yxbf-28" value="" style="endArrow=classic;html=1;rounded=0;fontFamily=Garamond;fontSize=14;exitX=0.59;exitY=1.075;exitDx=0;exitDy=0;exitPerimeter=0;entryX=0.5;entryY=0;entryDx=0;entryDy=0;" parent="WIyWlLk6GJQsqaUBKTNV-1" source="lCIamtsk54EWMhv8Yxbf-15" target="lCIamtsk54EWMhv8Yxbf-13" edge="1">
          <mxGeometry width="50" height="50" relative="1" as="geometry">
            <mxPoint x="327" y="-940" as="sourcePoint" />
            <mxPoint x="377" y="-990" as="targetPoint" />
          </mxGeometry>
        </mxCell>
        <mxCell id="lCIamtsk54EWMhv8Yxbf-29" value="Restaurant Info" style="rounded=1;whiteSpace=wrap;html=1;fontFamily=Garamond;fontSize=14;" parent="WIyWlLk6GJQsqaUBKTNV-1" vertex="1">
          <mxGeometry x="103" y="-760" width="90" height="40" as="geometry" />
        </mxCell>
        <mxCell id="lCIamtsk54EWMhv8Yxbf-31" value="" style="endArrow=classic;html=1;rounded=0;fontFamily=Garamond;fontSize=14;exitX=0.5;exitY=1;exitDx=0;exitDy=0;" parent="WIyWlLk6GJQsqaUBKTNV-1" edge="1">
          <mxGeometry width="50" height="50" relative="1" as="geometry">
            <mxPoint x="143" y="-790" as="sourcePoint" />
            <mxPoint x="143" y="-760" as="targetPoint" />
          </mxGeometry>
        </mxCell>
        <mxCell id="lCIamtsk54EWMhv8Yxbf-32" value="" style="endArrow=classic;html=1;rounded=0;fontFamily=Garamond;fontSize=14;exitX=0.5;exitY=1;exitDx=0;exitDy=0;entryX=0.5;entryY=0;entryDx=0;entryDy=0;" parent="WIyWlLk6GJQsqaUBKTNV-1" source="lCIamtsk54EWMhv8Yxbf-10" target="lCIamtsk54EWMhv8Yxbf-33" edge="1">
          <mxGeometry width="50" height="50" relative="1" as="geometry">
            <mxPoint x="523" y="-820" as="sourcePoint" />
            <mxPoint x="298" y="-760" as="targetPoint" />
            <Array as="points">
              <mxPoint x="298" y="-720" />
            </Array>
          </mxGeometry>
        </mxCell>
        <mxCell id="lCIamtsk54EWMhv8Yxbf-33" value="Profile Page" style="rounded=1;whiteSpace=wrap;html=1;fontFamily=Garamond;fontSize=14;" parent="WIyWlLk6GJQsqaUBKTNV-1" vertex="1">
          <mxGeometry x="168" y="-670" width="110" height="40" as="geometry" />
        </mxCell>
        <mxCell id="lCIamtsk54EWMhv8Yxbf-34" value="" style="endArrow=classic;html=1;rounded=0;fontFamily=Garamond;fontSize=14;exitX=0.5;exitY=1;exitDx=0;exitDy=0;" parent="WIyWlLk6GJQsqaUBKTNV-1" edge="1">
          <mxGeometry width="50" height="50" relative="1" as="geometry">
            <mxPoint x="148" y="-720" as="sourcePoint" />
            <mxPoint x="223" y="-670" as="targetPoint" />
          </mxGeometry>
        </mxCell>
        <mxCell id="lCIamtsk54EWMhv8Yxbf-37" value="" style="endArrow=classic;html=1;rounded=0;fontFamily=Garamond;fontSize=14;exitX=0.5;exitY=1;exitDx=0;exitDy=0;entryX=0.5;entryY=0;entryDx=0;entryDy=0;" parent="WIyWlLk6GJQsqaUBKTNV-1" source="lCIamtsk54EWMhv8Yxbf-33" target="lCIamtsk54EWMhv8Yxbf-41" edge="1">
          <mxGeometry relative="1" as="geometry">
            <mxPoint x="493" y="-610" as="sourcePoint" />
            <mxPoint x="223" y="-580" as="targetPoint" />
          </mxGeometry>
        </mxCell>
        <mxCell id="lCIamtsk54EWMhv8Yxbf-38" value="Donate Now" style="edgeLabel;resizable=0;html=1;align=center;verticalAlign=middle;fontFamily=Garamond;fontSize=14;strokeColor=#4A0000;fillColor=#42000F;" parent="lCIamtsk54EWMhv8Yxbf-37" connectable="0" vertex="1">
          <mxGeometry relative="1" as="geometry" />
        </mxCell>
        <mxCell id="lCIamtsk54EWMhv8Yxbf-41" value="leftover input" style="rounded=1;whiteSpace=wrap;html=1;fontFamily=Garamond;fontSize=14;" parent="WIyWlLk6GJQsqaUBKTNV-1" vertex="1">
          <mxGeometry x="173" y="-584.5" width="100" height="34.5" as="geometry" />
        </mxCell>
        <mxCell id="lCIamtsk54EWMhv8Yxbf-42" value="Confirmation Page" style="rounded=1;whiteSpace=wrap;html=1;fontFamily=Garamond;fontSize=14;" parent="WIyWlLk6GJQsqaUBKTNV-1" vertex="1">
          <mxGeometry x="174" y="-520" width="100" height="30" as="geometry" />
        </mxCell>
        <mxCell id="lCIamtsk54EWMhv8Yxbf-43" value="" style="endArrow=classic;html=1;rounded=0;fontFamily=Garamond;fontSize=14;exitX=0.5;exitY=1;exitDx=0;exitDy=0;entryX=0.5;entryY=0;entryDx=0;entryDy=0;" parent="WIyWlLk6GJQsqaUBKTNV-1" source="lCIamtsk54EWMhv8Yxbf-41" target="lCIamtsk54EWMhv8Yxbf-42" edge="1">
          <mxGeometry width="50" height="50" relative="1" as="geometry">
            <mxPoint x="543" y="-580" as="sourcePoint" />
            <mxPoint x="593" y="-630" as="targetPoint" />
          </mxGeometry>
        </mxCell>
        <mxCell id="lCIamtsk54EWMhv8Yxbf-44" value="" style="endArrow=classic;html=1;rounded=0;fontFamily=Garamond;fontSize=14;entryX=1;entryY=0.5;entryDx=0;entryDy=0;" parent="WIyWlLk6GJQsqaUBKTNV-1" target="lCIamtsk54EWMhv8Yxbf-33" edge="1">
          <mxGeometry width="50" height="50" relative="1" as="geometry">
            <mxPoint x="220" y="-490" as="sourcePoint" />
            <mxPoint x="180" y="-650" as="targetPoint" />
            <Array as="points">
              <mxPoint x="220" y="-460" />
              <mxPoint x="310" y="-460" />
              <mxPoint x="310" y="-650" />
            </Array>
          </mxGeometry>
        </mxCell>
        <mxCell id="lCIamtsk54EWMhv8Yxbf-46" value="Personal/NGO info" style="rounded=1;whiteSpace=wrap;html=1;fontFamily=Garamond;fontSize=14;" parent="WIyWlLk6GJQsqaUBKTNV-1" vertex="1">
          <mxGeometry x="634" y="-760" width="100" height="40" as="geometry" />
        </mxCell>
        <mxCell id="lCIamtsk54EWMhv8Yxbf-47" value="Profile Page" style="rounded=1;whiteSpace=wrap;html=1;fontFamily=Garamond;fontSize=14;" parent="WIyWlLk6GJQsqaUBKTNV-1" vertex="1">
          <mxGeometry x="567" y="-670" width="100" height="40" as="geometry" />
        </mxCell>
        <mxCell id="lCIamtsk54EWMhv8Yxbf-50" value="" style="endArrow=classic;html=1;rounded=0;fontFamily=Garamond;fontSize=14;exitX=0.5;exitY=1;exitDx=0;exitDy=0;" parent="WIyWlLk6GJQsqaUBKTNV-1" source="lCIamtsk54EWMhv8Yxbf-13" edge="1">
          <mxGeometry width="50" height="50" relative="1" as="geometry">
            <mxPoint x="347" y="-680" as="sourcePoint" />
            <mxPoint x="694" y="-760" as="targetPoint" />
          </mxGeometry>
        </mxCell>
        <mxCell id="lCIamtsk54EWMhv8Yxbf-51" value="" style="endArrow=classic;html=1;rounded=0;fontFamily=Garamond;fontSize=14;exitX=0.5;exitY=1;exitDx=0;exitDy=0;entryX=0.5;entryY=0;entryDx=0;entryDy=0;" parent="WIyWlLk6GJQsqaUBKTNV-1" source="lCIamtsk54EWMhv8Yxbf-12" target="lCIamtsk54EWMhv8Yxbf-47" edge="1">
          <mxGeometry width="50" height="50" relative="1" as="geometry">
            <mxPoint x="347" y="-680" as="sourcePoint" />
            <mxPoint x="397" y="-730" as="targetPoint" />
            <Array as="points">
              <mxPoint x="527" y="-720" />
            </Array>
          </mxGeometry>
        </mxCell>
        <mxCell id="lCIamtsk54EWMhv8Yxbf-52" value="" style="endArrow=classic;html=1;rounded=0;fontFamily=Garamond;fontSize=14;entryX=0.58;entryY=0;entryDx=0;entryDy=0;entryPerimeter=0;" parent="WIyWlLk6GJQsqaUBKTNV-1" target="lCIamtsk54EWMhv8Yxbf-47" edge="1">
          <mxGeometry width="50" height="50" relative="1" as="geometry">
            <mxPoint x="697" y="-720" as="sourcePoint" />
            <mxPoint x="397" y="-730" as="targetPoint" />
          </mxGeometry>
        </mxCell>
        <mxCell id="lCIamtsk54EWMhv8Yxbf-53" value="" style="endArrow=classic;html=1;rounded=0;fontFamily=Garamond;fontSize=14;exitX=0.5;exitY=1;exitDx=0;exitDy=0;entryX=0.5;entryY=0;entryDx=0;entryDy=0;" parent="WIyWlLk6GJQsqaUBKTNV-1" source="lCIamtsk54EWMhv8Yxbf-47" target="lCIamtsk54EWMhv8Yxbf-56" edge="1">
          <mxGeometry relative="1" as="geometry">
            <mxPoint x="287" y="-460" as="sourcePoint" />
            <mxPoint x="617" y="-590" as="targetPoint" />
          </mxGeometry>
        </mxCell>
        <mxCell id="lCIamtsk54EWMhv8Yxbf-54" value="Volunteer Now" style="edgeLabel;resizable=0;html=1;align=center;verticalAlign=middle;fontFamily=Garamond;fontSize=14;strokeColor=#4A0000;fillColor=#42000F;" parent="lCIamtsk54EWMhv8Yxbf-53" connectable="0" vertex="1">
          <mxGeometry relative="1" as="geometry" />
        </mxCell>
        <mxCell id="lCIamtsk54EWMhv8Yxbf-56" value="Restaurants Waiting" style="rounded=1;whiteSpace=wrap;html=1;fontFamily=Garamond;fontSize=14;" parent="WIyWlLk6GJQsqaUBKTNV-1" vertex="1">
          <mxGeometry x="567" y="-584" width="100" height="30" as="geometry" />
        </mxCell>
        <mxCell id="lCIamtsk54EWMhv8Yxbf-57" value="" style="endArrow=classic;html=1;rounded=0;fontFamily=Garamond;fontSize=14;exitX=0.5;exitY=1;exitDx=0;exitDy=0;" parent="WIyWlLk6GJQsqaUBKTNV-1" source="lCIamtsk54EWMhv8Yxbf-56" edge="1">
          <mxGeometry width="50" height="50" relative="1" as="geometry">
            <mxPoint x="347" y="-440" as="sourcePoint" />
            <mxPoint x="617" y="-520" as="targetPoint" />
          </mxGeometry>
        </mxCell>
        <mxCell id="lCIamtsk54EWMhv8Yxbf-58" value="Confirmation Page" style="rounded=1;whiteSpace=wrap;html=1;fontFamily=Garamond;fontSize=14;" parent="WIyWlLk6GJQsqaUBKTNV-1" vertex="1">
          <mxGeometry x="567" y="-520" width="100" height="30" as="geometry" />
        </mxCell>
        <mxCell id="lCIamtsk54EWMhv8Yxbf-59" value="" style="endArrow=classic;html=1;rounded=0;fontFamily=Garamond;fontSize=14;exitX=0.5;exitY=1;exitDx=0;exitDy=0;entryX=1;entryY=0.5;entryDx=0;entryDy=0;" parent="WIyWlLk6GJQsqaUBKTNV-1" source="lCIamtsk54EWMhv8Yxbf-58" target="lCIamtsk54EWMhv8Yxbf-47" edge="1">
          <mxGeometry width="50" height="50" relative="1" as="geometry">
            <mxPoint x="440" y="-440" as="sourcePoint" />
            <mxPoint x="490" y="-490" as="targetPoint" />
            <Array as="points">
              <mxPoint x="617" y="-460" />
              <mxPoint x="700" y="-460" />
              <mxPoint x="700" y="-650" />
            </Array>
          </mxGeometry>
        </mxCell>
      </root>
    </mxGraphModel>
  </diagram>
</mxfile>
